<?xml version="1.0" encoding="utf-8"?>
<!-- Generator: Adobe Illustrator 15.0.0, SVG Export Plug-In . SVG Version: 6.00 Build 0)  -->
<svg version="1.2" baseProfile="tiny" id="Layer_1" xmlns="http://www.w3.org/2000/svg" xmlns:xlink="http://www.w3.org/1999/xlink"
	 x="0px" y="0px" width="130.357px" height="130.36px" viewBox="0 0 130.357 130.36" xml:space="preserve">
<path fill="#FFFFFF" d="M65.18,0C29.182,0,0,29.181,0,65.181c0,35.996,29.182,65.18,65.18,65.18
	c35.996,0,65.178-29.184,65.178-65.18C130.357,29.181,101.176,0,65.18,0z M99.745,33.263h-10.53c-5.922,0-4.935,5.59-4.935,5.59
	v10.531h13.82v15.465H83.95v28.633v18.75H66.183v-18.75V65.181H55.653V49.384h10.192l0.008-15.465
	c0-15.461,15.795-15.793,15.795-15.793h18.097V33.263z"/>
</svg>
