<?xml version="1.0" encoding="utf-8"?>
<!-- Generator: Adobe Illustrator 15.0.0, SVG Export Plug-In . SVG Version: 6.00 Build 0)  -->
<svg version="1.2" baseProfile="tiny" id="Layer_1" xmlns="http://www.w3.org/2000/svg" xmlns:xlink="http://www.w3.org/1999/xlink"
	 x="0px" y="0px" width="130.361px" height="130.36px" viewBox="0 0 130.361 130.36" xml:space="preserve">
<g>
	<polygon fill="#F2F2F2" points="87.391,32.56 40.328,32.56 65.982,54.544 	"/>
	<path fill="#F2F2F2" d="M31.801,44.575v53.223h67.477V42.974l-33.65,31.512L31.801,44.575z M33.016,87.829l23.02-20.371
		l1.496,1.148L33.016,87.829z M74.539,67.458l23.02,20.371L73.042,68.606L74.539,67.458z"/>
	<path fill="#F2F2F2" d="M65.18,0C29.182,0,0,29.181,0,65.181s29.182,65.18,65.18,65.18c35.999,0,65.182-29.18,65.182-65.18
		S101.179,0,65.18,0z M99.277,99.767H31.801H17.73V30.595h20.301h51.276h23.323v69.172H99.277z"/>
</g>
</svg>
