<?xml version="1.0" encoding="UTF-8" standalone="no"?>
<!-- Created with Inkscape (http://www.inkscape.org/) -->

<svg
   xmlns:dc="http://purl.org/dc/elements/1.1/"
   xmlns:cc="http://creativecommons.org/ns#"
   xmlns:rdf="http://www.w3.org/1999/02/22-rdf-syntax-ns#"
   xmlns:svg="http://www.w3.org/2000/svg"
   xmlns="http://www.w3.org/2000/svg"
   version="1.1"
   width="71.567497"
   height="81.057503"
   id="svg4235">
  <defs
     id="defs4237" />
  <metadata
     id="metadata4240">
    <rdf:RDF>
      <cc:Work
         rdf:about="">
        <dc:format>image/svg+xml</dc:format>
        <dc:type
           rdf:resource="http://purl.org/dc/dcmitype/StillImage" />
        <dc:title></dc:title>
      </cc:Work>
    </rdf:RDF>
  </metadata>
  <g
     transform="translate(-349.93054,-348.97629)"
     id="layer1">
    <g
       transform="matrix(-1.25,0,0,-1.25,352.48554,385.07629)"
       id="g400">
      <path
         d="m 0,0 -49.075,28.331 c -1.268,0.732 -2.826,0.732 -4.09,0 -1.266,-0.729 -2.045,-2.081 -2.045,-3.54 l 0,-56.667 c 0,-1.462 0.779,-2.812 2.045,-3.542 0.632,-0.365 1.338,-0.548 2.043,-0.548 0.707,0 1.412,0.183 2.047,0.548 L 0,-7.084 c 1.265,0.73 2.044,2.08 2.044,3.539 C 2.044,-2.083 1.265,-0.732 0,0"
         id="path402"
         style="fill:#4c4c4c;fill-opacity:1;fill-rule:nonzero;stroke:none" />
    </g>
  </g>
</svg>
