<?xml version="1.0" encoding="utf-8"?>
<!-- Generator: Adobe Illustrator 15.0.0, SVG Export Plug-In . SVG Version: 6.00 Build 0)  -->
<svg version="1.2" baseProfile="tiny" id="Layer_1" xmlns="http://www.w3.org/2000/svg" xmlns:xlink="http://www.w3.org/1999/xlink"
	 x="0px" y="0px" width="130.361px" height="130.36px" viewBox="0 0 130.361 130.36" xml:space="preserve">
<path fill="#FFFFFF" d="M65.182,0C29.182,0,0,29.181,0,65.181s29.182,65.18,65.182,65.18c35.998,0,65.18-29.18,65.18-65.18
	S101.18,0,65.182,0z M41.135,107.56H22.659V50.552h18.476V107.56z M31.898,42.54c-5.921,0-10.715-4.418-10.715-9.867
	c0-5.453,4.794-9.871,10.715-9.871c5.916,0,10.713,4.418,10.713,9.871C42.611,38.122,37.814,42.54,31.898,42.54z M109.125,74.985
	v32.574H90.656V74.985c0-11.324-9.994-11.23-9.994-11.23c-7.748,0-10.33,9.043-10.33,9.043v34.762H51.859V50.552h18.473v7.945
	c6.158-11.324,17.876-8.938,17.876-8.938C111.248,49.56,109.125,74.985,109.125,74.985z"/>
</svg>
