<?xml version="1.0" encoding="utf-8"?>
<!-- Generator: Adobe Illustrator 15.0.0, SVG Export Plug-In . SVG Version: 6.00 Build 0)  -->
<svg version="1.2" baseProfile="tiny" id="Layer_1" xmlns="http://www.w3.org/2000/svg" xmlns:xlink="http://www.w3.org/1999/xlink"
	 x="0px" y="0px" width="130.361px" height="130.36px" viewBox="0 0 130.361 130.36" xml:space="preserve">
<path fill="#FFFFFF" d="M65.604,0C29.605,0,0.422,29.181,0.422,65.181s29.184,65.18,65.182,65.18c35.996,0,65.18-29.18,65.18-65.18
	S101.6,0,65.604,0z M107.045,85.177c0,0.535-0.334,3.418-0.334,3.418c-0.742,7.41-2.965,7.969-2.965,7.969
	c-5.188,4.633-10.006,5.742-10.006,5.742c-5.188,1.855-10.006,0.926-10.006,0.926c-3.52-0.926-7.967-2.223-7.967-2.223
	C58.35,97.118,42.972,80.071,42.972,80.071C29.443,66.548,24.627,49.13,24.627,49.13c-3.149-11.488,7.969-20.938,7.969-20.938
	c0.74-0.559,3.334-1.297,3.334-1.297h7.042c1.411,0.418,2.013,1.863,2.013,1.863l7.255,16.723c0.94,2.418,0.067,3.223,0.067,3.223
	c-0.27,0.742-1.814,2.891-1.814,2.891c-1.68,2.617-4.434,5.305-4.434,5.305c-1.141,1.141,0,2.754,0,2.754
	c1.882,4.902,10.613,13.902,10.613,13.902c3.693,3.762,12.225,8.801,12.225,8.801c2.283,1.141,7.117,2.887,7.117,2.887
	c1.277,0.199,2.15-1.277,2.15-1.277c0.873-1.609,7.59-9.066,7.59-9.066c1.342-1.344,2.82-0.402,2.82-0.402l16.926,8.328
	C107.716,83.899,107.045,85.177,107.045,85.177z"/>
</svg>
