<?xml version="1.0" encoding="utf-8"?>
<!-- Generator: Adobe Illustrator 15.0.0, SVG Export Plug-In . SVG Version: 6.00 Build 0)  -->
<svg version="1.2" baseProfile="tiny" id="Layer_1" xmlns="http://www.w3.org/2000/svg" xmlns:xlink="http://www.w3.org/1999/xlink"
	 x="0px" y="0px" width="130.361px" height="130.36px" viewBox="0 0 130.361 130.36" xml:space="preserve">
<path fill="#FFFFFF" d="M65.181,0C29.183,0,0,29.181,0,65.181c0,35.996,29.183,65.18,65.181,65.18
	c35.999,0,65.181-29.184,65.181-65.18C130.361,29.181,101.18,0,65.181,0z M85.293,85.122c5.869,0,10.627,4.758,10.627,10.629
	c0,5.867-4.758,10.629-10.627,10.629H51.447c0,0-0.133,0.004-0.379,0.004c-2.508,0-16.625-0.902-16.625-21.262v-50.52
	c0-5.867,4.758-10.629,10.627-10.629c5.867,0,10.627,4.762,10.627,10.629v11.281h29.596c5.869,0,10.627,4.762,10.627,10.625
	c0,5.871-4.758,10.629-10.627,10.629H55.697v17.984H85.293z"/>
</svg>
